<svg xmlns="http://www.w3.org/2000/svg" viewBox="0 0 576 512"><path d="M385.2 167.6c6.4 0 12.6.3 18.8 1.1C387.4 90.3 303.3 32 207.7 32 100.5 32 13 104.8 13 197.4c0 53.4 29.3 97.5 77.9 131.6l-19.3 58.6 68-34.1c24.4 4.8 43.8 9.7 68.2 9.7 6.2 0 12.1-.3 18.3-.8-3.8-13-5.9-26.8-5.9-41.2 0-89.6 76.4-153.6 165-153.6zM258 155.2c12.1 0 20.1 7.7 20.1 19.6 0 11.6-8 19.6-20.1 19.6-12 0-24.1-8-24.1-19.6 0-11.9 12-19.6 24.1-19.6zm-128.4 39.2c-12 0-24.1-8-24.1-19.6 0-11.9 12-19.6 24.1-19.6 12.1 0 20.1 7.7 20.1 19.6 0 11.6-8 19.6-20.1 19.6zM563 371.6c0-78.6-76.7-142.3-162.7-142.3-90.6 0-163.1 63.7-163.1 142.3S309.7 514 400.3 514c19.3 0 38.9-4.8 58.3-9.7l53.4 29.3-14.5-48.7c38.9-29 65.5-67.8 65.5-113.3zm-225-39.2c-8 0-14.5-7.7-14.5-14.5 0-7.2 6.5-14.5 14.5-14.5s14.5 7.2 14.5 14.5c0 6.9-6.5 14.5-14.5 14.5zm124.5 0c-8 0-14.5-7.7-14.5-14.5 0-7.2 6.5-14.5 14.5-14.5s14.5 7.2 14.5 14.5c0 6.9-6.5 14.5-14.5 14.5z"/></svg>
