<svg xmlns="http://www.w3.org/2000/svg" viewBox="0 0 512 512"><path d="M407 177.6c7.6-24-13.4-46.8-37.4-41.7-22 4.8-28.8-28.1-7.1-32.8 50.1-10.9 92.3 37.1 76.5 84.8-6.8 21.2-38.8 10.8-32-10.3zM214.8 446.7C108.5 446.7 0 395.3 0 310.4c0-44.3 28-95.4 76.3-143.7C176 67 279.5 37 291.8 108.9c2.6 15.3-11.1 9.6-17.8 7.3-74.4-24.5-163.3 .2-199.8 72.1-21.8 43-7.4 91 41.2 109.4 54.7 20.8 143.1 4 179.1-58.8 11.4-19.9 8.7-40.2-3.7-52.4-28.2-28.3-89.3-18.6-122.6 9.4-31.8 26.7-29 65 20.2 78.3 55.7 15 128.5-12.6 138.8-70.6 3.4-19.1-13.8-29.2-31.2-21.2-25.2 11.5 3.4 39.2-13.1 39.2-8.7 0-19.8-32.4 4.4-44.8 53.8-27.5 135.1-1.5 130.5 63.1-3.2 43.5-55.7 86.8-126.2 100.6-40.7 7.9-82.4 5.5-110.8-5.1-92.3-34.8-28.5-109.6 37.2-92 32.8 8.7 51.6 31.4 51.6 56.2 0 48.9-52.1 80.4-101.7 79-49.9-1.5-85.2-35.5-91-72.2-6.6-41.3 24.3-79.4 63.5-89.1 46.7-11.5 96 27.5 88 78.2-9.2 57.4-91.4 61.3-92.9 9.2-.9-34.4 30.7-42.5 55.2-35.2zM412 186.6c37.1-22.7 41.2-73.8 13.8-103.7-24.6-27-64.4-35.2-96.1-18.5-27.5 14.4-10.2 47.3 17.5 32.9 18.8-9.7 43.1-4.3 57.4 12.6 15.4 18.3 12 44.1-7.4 55.7-20.2 12.1 .2 33.4 14.8 21z"/></svg>
